<?xml version="1.0" standalone="no"?>
<!DOCTYPE svg PUBLIC "-//W3C//DTD SVG 20010904//EN"
 "http://www.w3.org/TR/2001/REC-SVG-20010904/DTD/svg10.dtd">
<svg version="1.0" xmlns="http://www.w3.org/2000/svg"
 width="500.000000pt" height="500.000000pt" viewBox="0 0 500.000000 500.000000"
 preserveAspectRatio="xMidYMid meet">
<metadata>
Created by potrace 1.14, written by Peter Selinger 2001-2017
</metadata>
<g transform="translate(0.000000,500.000000) scale(0.100000,-0.100000)"
fill="#000000" stroke="none">
<path d="M2538 4815 c-8 -8 -284 -28 -398 -30 -52 0 -103 -5 -113 -9 -10 -5
-31 -6 -46 -3 -19 4 -33 1 -40 -7 -6 -8 -28 -16 -49 -19 -20 -4 -64 -16 -97
-27 -33 -11 -71 -22 -85 -24 -14 -2 -38 -6 -55 -10 -16 -3 -24 -3 -17 0 6 3
12 10 12 15 0 11 -132 4 -175 -9 -16 -5 -35 -7 -42 -5 -14 5 -128 -52 -156
-78 -11 -10 -29 -21 -39 -25 -10 -3 -18 -9 -18 -14 0 -38 -112 -2 -340 108
-91 44 -182 85 -203 92 -48 15 -158 8 -210 -15 -21 -9 -63 -18 -93 -20 -71 -4
-123 -35 -223 -133 -86 -84 -90 -92 -116 -239 -16 -91 -13 -123 31 -291 13
-51 22 -97 19 -102 -3 -5 8 -34 25 -63 18 -33 31 -70 32 -93 1 -45 13 -64 39
-64 11 0 19 -7 19 -15 0 -14 -4 -14 -37 0 -46 19 -56 11 -15 -12 24 -14 30
-23 25 -38 -3 -11 -10 -23 -15 -26 -6 -4 -6 -9 2 -14 7 -4 9 -17 6 -31 -5 -18
-3 -22 9 -18 8 4 16 16 17 28 2 36 3 40 16 61 l12 20 12 -20 c15 -25 80 -86
86 -80 3 2 -3 16 -12 29 -8 14 -13 32 -10 40 6 16 -17 46 -35 46 -14 0 -14 13
1 28 9 9 7 12 -10 12 -16 0 -22 6 -22 21 0 16 -4 19 -22 13 -21 -6 -21 -6 -4
12 18 17 18 18 -2 25 -12 5 -23 21 -28 41 -4 18 -9 27 -12 19 -8 -25 -61 138
-66 204 -1 17 -10 65 -20 108 -25 106 -11 213 40 305 38 68 54 86 129 142 67
50 108 70 143 70 16 0 47 6 68 14 63 22 137 29 185 16 58 -14 170 -60 190 -77
8 -7 22 -13 30 -13 8 0 25 -11 37 -25 13 -14 54 -39 90 -56 37 -17 75 -35 84
-40 10 -5 24 -9 31 -9 7 0 21 -6 30 -12 15 -12 13 -17 -23 -57 -22 -25 -40
-50 -40 -58 0 -7 -11 -18 -25 -23 -24 -9 -37 -50 -15 -50 6 0 10 5 10 11 0 5
4 7 10 4 5 -3 16 9 23 28 8 18 26 43 41 54 14 12 26 26 26 31 0 6 12 20 27 32
33 26 69 22 117 -15 38 -29 54 -31 81 -11 19 14 19 15 -5 24 -14 6 -42 13 -62
17 -24 4 -42 14 -49 27 -6 11 -7 18 -1 14 5 -3 17 6 26 19 20 30 115 75 160
75 17 1 42 7 56 15 34 19 51 19 43 -1 -6 -17 -2 -16 57 4 9 3 5 -4 -7 -17 -13
-12 -23 -23 -23 -25 0 -11 82 -3 93 9 15 15 130 55 157 55 9 0 72 18 139 41
95 31 132 39 164 34 52 -7 300 10 385 26 54 10 65 10 73 -2 8 -13 105 -20 299
-19 86 0 192 -20 222 -41 15 -10 37 -19 50 -19 38 0 68 -12 61 -23 -4 -6 2 -8
16 -4 12 3 36 1 53 -4 18 -5 34 -5 37 0 4 4 22 8 41 9 19 1 42 2 50 3 37 3
111 -5 116 -13 3 -4 20 -8 38 -8 18 0 48 -10 67 -23 19 -13 42 -26 52 -30 9
-3 17 -11 17 -16 0 -5 15 -12 33 -15 59 -12 89 -56 38 -56 -9 0 -27 -9 -38
-19 -12 -11 -23 -17 -26 -15 -3 3 -17 -2 -32 -12 -25 -16 -26 -19 -9 -25 21
-7 54 5 96 33 37 25 92 32 108 13 7 -8 19 -15 26 -15 8 0 14 -9 14 -20 0 -11
7 -20 15 -20 9 0 15 9 15 25 0 13 7 40 16 58 14 30 23 36 60 41 47 6 83 25
123 63 14 13 41 31 60 40 20 9 38 20 41 23 11 13 79 39 144 56 72 18 65 19
252 -17 28 -6 72 -23 98 -39 26 -17 49 -30 52 -30 13 0 75 -55 114 -101 33
-39 46 -66 56 -113 14 -64 18 -255 5 -222 -14 35 -22 -1 -17 -71 3 -37 11 -70
17 -74 8 -5 8 -8 0 -13 -6 -4 -11 -4 -11 1 -1 4 -7 -7 -15 -26 -8 -18 -12 -37
-9 -42 7 -12 -50 -112 -115 -204 -61 -84 -95 -145 -86 -153 3 -3 17 7 30 23
41 50 28 16 -21 -56 -26 -38 -50 -86 -55 -111 -11 -56 -11 -131 -1 -124 11 6
3 -154 -9 -174 -6 -11 -12 -5 -24 25 -9 22 -31 72 -49 110 -19 39 -37 78 -40
88 -3 10 -10 16 -15 13 -8 -5 -94 86 -114 120 -4 8 -14 14 -22 14 -8 0 -20 8
-27 18 -7 9 -23 26 -36 36 -19 17 -22 17 -16 3 10 -28 -13 -19 -38 14 -50 65
-91 109 -98 104 -4 -3 -13 8 -19 23 -20 47 -84 91 -179 122 -141 45 -275 60
-727 81 -104 5 -197 9 -205 9 -83 5 -248 23 -260 29 -24 11 -499 14 -550 2
-78 -17 -237 -31 -465 -41 -121 -6 -240 -12 -265 -15 -25 -2 -90 -7 -145 -10
-135 -7 -190 -14 -255 -33 -30 -9 -58 -15 -62 -14 -4 1 -33 -11 -65 -27 -62
-32 -122 -88 -144 -136 -23 -50 -57 -41 -96 25 -18 30 -33 63 -33 73 0 10 26
44 58 75 47 46 51 53 23 37 -49 -29 -91 -90 -91 -133 0 -27 10 -47 40 -83 22
-26 40 -52 40 -57 0 -5 -22 -19 -49 -31 -57 -27 -103 -68 -198 -172 -58 -64
-71 -85 -87 -142 -10 -36 -29 -81 -42 -99 -13 -17 -24 -39 -24 -47 -1 -13 -3
-13 -11 2 -8 13 -7 22 1 32 13 15 6 120 -9 140 -12 16 -31 90 -31 121 -1 46
-66 86 -147 89 -35 1 -66 -1 -68 -5 -3 -4 10 -15 28 -23 18 -9 45 -30 60 -46
27 -31 47 -40 47 -22 0 5 -12 18 -27 29 -22 16 -25 23 -16 33 18 18 37 -2 63
-69 12 -31 31 -79 42 -105 14 -37 18 -66 16 -126 -3 -67 -8 -84 -36 -128 -45
-71 -60 -177 -44 -327 7 -61 23 -230 38 -376 31 -321 41 -352 114 -360 39 -4
45 -9 48 -30 2 -13 12 -34 22 -47 9 -12 23 -43 30 -68 7 -25 18 -45 25 -45 8
0 15 -5 17 -11 3 -9 9 -9 24 -1 39 21 57 -19 28 -63 -19 -30 -15 -81 7 -78 12
2 15 -7 15 -47 0 -28 6 -56 13 -63 11 -10 12 -6 6 21 -5 26 -3 36 12 47 29 23
33 18 33 -42 0 -32 6 -80 13 -108 12 -46 16 -50 43 -50 28 -1 29 -3 32 -53 2
-29 7 -52 12 -52 6 0 9 -10 7 -23 -2 -20 3 -23 50 -27 63 -7 87 -32 102 -111
14 -68 26 -85 69 -94 28 -6 32 -4 32 14 0 11 -4 23 -10 26 -5 3 -10 1 -10 -6
0 -39 -33 45 -45 115 -8 46 -80 125 -98 107 -12 -12 -47 -15 -47 -5 0 3 9 19
21 35 11 16 17 33 14 39 -3 6 2 22 13 38 24 34 44 72 38 72 -2 0 -15 -17 -27
-37 -13 -21 -28 -43 -34 -49 -18 -19 -35 -3 -35 32 0 19 -4 34 -10 34 -5 0
-10 14 -10 31 0 24 12 43 55 86 58 58 66 73 38 73 -42 -1 -88 -62 -103 -136
-12 -59 -16 -63 -36 -36 -18 23 -17 43 1 36 8 -4 15 -1 15 5 0 6 -6 11 -14 11
-7 0 -16 8 -18 18 -4 13 0 18 15 18 13 -1 21 7 24 23 2 14 0 22 -3 18 -10 -10
-34 13 -34 33 0 13 -6 16 -25 12 -17 -3 -25 0 -26 9 -1 8 -2 19 -4 24 -1 6 -3
13 -3 18 -1 4 -13 0 -26 -8 -18 -12 -25 -13 -28 -3 -5 14 22 49 33 43 4 -3 3
12 -2 33 -13 58 -6 183 13 212 21 33 33 123 16 118 -7 -3 -14 -20 -15 -39 -3
-37 -41 -139 -52 -139 -4 0 -7 -16 -7 -35 0 -19 4 -35 9 -35 4 0 5 -5 1 -11
-4 -8 -9 -7 -15 2 -8 11 -11 11 -20 -3 -24 -42 -54 -9 -43 47 3 19 1 35 -5 39
-6 4 -11 2 -11 -3 0 -6 -7 -11 -15 -11 -8 0 -15 9 -15 21 0 11 -4 17 -10 14
-18 -11 16 61 64 138 19 30 53 141 62 202 4 28 9 44 11 38 3 -7 9 -13 15 -13
7 0 8 14 5 37 -6 35 -5 37 9 18 57 -77 128 -135 219 -180 31 -15 59 -34 62
-41 3 -9 13 -12 25 -8 11 3 18 2 15 -3 -3 -5 2 -9 11 -10 26 -2 111 -34 110
-42 -5 -27 41 -82 69 -81 4 1 -4 8 -20 16 -15 8 -27 19 -27 24 0 13 1 13 41
-4 43 -18 139 -36 139 -26 0 4 -19 10 -42 14 -44 7 -152 46 -145 52 4 5 210
-36 347 -68 65 -16 124 -23 188 -22 50 0 92 -1 92 -2 0 -2 -12 -11 -27 -19
-16 -9 -20 -14 -10 -11 21 7 22 -7 2 -24 -9 -7 -13 -15 -10 -18 3 -3 16 5 30
18 32 30 33 14 1 -19 -26 -27 -71 -121 -58 -121 4 0 19 22 34 48 25 45 68 94
68 77 0 -4 -11 -21 -26 -37 -25 -30 -74 -120 -74 -135 0 -4 9 6 20 22 22 33
26 22 9 -22 -16 -38 -21 -83 -10 -83 5 0 11 6 14 12 4 13 0 -6 -10 -49 -7 -28
20 -59 34 -40 6 7 13 21 16 32 7 20 7 20 -8 1 -13 -18 -15 -18 -15 -2 0 18 27
77 40 86 4 3 10 19 13 35 l6 30 -14 -31 c-7 -17 -21 -36 -29 -43 -14 -12 -16
-10 -16 9 0 12 18 42 39 66 30 34 37 50 33 67 -6 21 -7 20 -10 -6 -2 -15 -7
-27 -12 -27 -5 0 -4 15 1 32 5 18 9 34 9 36 0 2 6 0 13 -4 9 -6 9 -4 0 7 -17
17 -17 32 0 23 6 -4 9 -4 5 1 -9 9 58 138 84 162 18 17 19 16 8 -11 -9 -26 -9
-27 5 -16 8 7 15 18 15 24 0 12 39 66 40 54 0 -3 -15 -44 -34 -90 -19 -46 -29
-74 -23 -64 7 10 26 41 44 68 18 27 30 55 27 62 -8 22 15 67 64 125 27 31 66
82 88 115 21 32 49 72 61 90 11 17 47 56 80 87 48 47 72 62 138 84 67 23 91
26 147 22 112 -10 180 -41 254 -116 35 -36 64 -69 64 -73 0 -4 35 -56 78 -114
42 -58 84 -116 92 -128 8 -11 27 -38 43 -58 16 -21 26 -38 22 -38 -3 0 5 -11
19 -23 14 -13 23 -26 20 -30 -3 -3 11 -18 30 -34 20 -15 36 -33 36 -39 0 -6
11 -21 25 -34 14 -13 23 -30 20 -38 -3 -8 0 -10 7 -6 8 5 9 2 5 -9 -3 -9 2
-36 13 -59 l19 -43 -5 45 -5 45 17 -30 c9 -16 24 -39 34 -50 9 -11 18 -40 19
-65 4 -58 11 -66 11 -11 0 27 4 40 11 36 14 -9 -16 60 -51 118 -16 26 -24 47
-18 47 7 0 7 4 0 13 -18 22 -22 65 -6 78 8 6 14 8 14 3 0 -17 52 -34 71 -24
11 7 20 7 24 0 3 -5 18 -8 33 -7 15 1 41 -2 57 -7 28 -7 29 -6 10 8 -28 21
-17 25 40 16 28 -4 71 -4 95 1 25 4 65 9 90 9 42 2 43 2 16 10 -17 5 -46 6
-68 1 -39 -9 -116 4 -103 17 4 4 28 8 53 9 52 2 79 6 102 15 8 4 33 9 55 12
22 3 51 8 65 11 14 3 10 -1 -10 -9 -43 -18 -25 -20 38 -4 37 9 42 13 26 19
-16 6 -14 8 9 8 32 1 126 29 144 43 7 6 16 7 21 4 6 -3 17 5 26 19 15 23 45
37 31 15 -3 -5 -2 -10 3 -10 6 0 12 7 15 15 4 8 25 27 49 42 24 15 49 36 56
45 7 10 22 18 32 18 13 0 22 9 26 25 3 14 13 25 23 25 9 0 25 17 36 37 l20 37
7 -55 c4 -30 9 -65 11 -79 2 -14 8 -34 14 -45 6 -11 14 -42 18 -69 6 -44 41
-116 63 -130 13 -8 -51 -137 -65 -131 -7 2 -13 -3 -13 -12 0 -9 -14 5 -31 31
-21 35 -33 46 -41 38 -16 -16 -2 -55 36 -101 30 -36 34 -46 29 -79 -11 -72
-44 -97 -51 -38 -2 15 -12 36 -21 45 -10 10 -20 24 -23 31 -3 9 -13 11 -33 6
l-29 -7 28 -23 c21 -16 29 -33 33 -64 3 -24 8 -55 12 -70 5 -18 -2 -57 -20
-120 -32 -105 -35 -112 -53 -112 -24 0 -43 -34 -41 -73 2 -33 -1 -37 -22 -37
-19 0 -23 5 -23 30 0 22 4 28 15 24 11 -5 13 1 8 32 -6 34 -5 37 15 32 12 -4
25 -2 28 3 3 5 10 7 15 4 5 -4 9 1 9 9 0 9 -5 16 -12 16 -9 0 -9 3 -1 11 7 7
8 24 1 51 -6 29 -5 43 2 48 7 5 9 20 5 44 -7 35 -8 36 -51 34 -33 -2 -45 -8
-53 -25 -14 -31 -4 -53 24 -53 35 0 55 -26 55 -71 0 -28 -4 -39 -15 -39 -31 0
-55 -33 -55 -75 0 -49 -22 -86 -41 -68 -6 6 -18 9 -25 6 -8 -3 -18 5 -24 18
-7 17 -8 -3 -5 -72 4 -84 1 -101 -19 -142 -23 -49 -36 -52 -36 -8 0 49 -15 56
-39 17 -13 -20 -27 -36 -32 -36 -5 0 -9 -8 -9 -17 0 -10 -14 9 -31 42 -16 33
-27 51 -24 41 22 -76 24 -106 9 -155 -17 -58 -31 -66 -36 -19 -2 18 -7 31 -13
28 -5 -3 -8 -14 -6 -25 2 -11 6 -42 10 -68 7 -53 24 -67 29 -23 2 15 19 57 39
92 36 66 49 74 108 71 42 -3 75 56 75 136 l0 57 60 0 c64 0 80 12 80 62 1 13
17 40 40 63 22 21 45 55 51 74 7 19 27 60 45 90 19 31 34 63 34 71 0 8 14 39
30 69 17 30 30 68 30 85 0 17 9 45 21 61 11 17 33 55 49 87 24 46 36 58 67 68
50 16 91 56 103 100 9 33 22 172 40 420 5 63 13 132 18 152 5 21 10 85 11 143
2 87 -2 113 -19 151 -25 58 -25 58 8 37 19 -13 13 -1 -25 42 l-52 60 10 105
c12 122 31 164 90 200 41 26 49 40 24 40 -29 0 -82 -33 -99 -61 -17 -29 -46
-40 -46 -16 0 6 11 34 24 61 13 27 22 55 19 61 -7 20 60 99 102 120 66 34 105
59 105 68 0 4 -10 3 -21 -4 -12 -6 -32 -12 -45 -14 -14 -1 -34 -11 -45 -21
-19 -17 -20 -17 -13 2 4 10 15 24 24 31 8 6 26 35 39 65 13 29 34 76 47 104
13 28 24 58 24 67 0 8 7 23 16 32 9 9 18 31 20 48 1 18 7 56 12 86 5 29 6 70
1 90 -13 59 -8 182 7 188 11 4 11 8 -1 20 -19 19 -19 37 0 29 9 -3 15 0 15 10
0 11 -6 13 -20 9 -14 -4 -20 -2 -20 8 0 11 7 13 22 9 21 -5 20 -3 -9 34 -27
34 -131 135 -177 172 -28 22 -123 61 -203 83 -114 31 -191 28 -288 -10 -44
-18 -87 -39 -96 -47 -8 -8 -21 -14 -27 -14 -6 0 -38 -12 -71 -26 -46 -20 -59
-30 -56 -45 2 -10 0 -21 -6 -24 -5 -4 -9 -1 -9 5 0 18 -30 23 -48 8 -26 -21
-93 -41 -133 -40 -39 2 -123 39 -178 78 -19 14 -46 27 -60 30 -14 4 -30 12
-36 18 -5 7 -28 13 -50 13 -22 1 -70 3 -108 6 -37 3 -70 1 -73 -4 -8 -14 -70
-11 -106 5 -18 8 -60 22 -93 31 -33 9 -82 23 -108 31 -28 9 -87 14 -145 14
-136 -1 -272 5 -302 14 -50 15 -57 16 -62 11z m-923 -125 c-3 -5 -12 -10 -18
-10 -7 0 -6 4 3 10 19 12 23 12 15 0z m2223 -159 c3 -8 -1 -12 -9 -9 -7 2 -15
10 -17 17 -3 8 1 12 9 9 7 -2 15 -10 17 -17z m1132 -357 c0 -8 -4 -12 -10 -9
-5 3 -10 10 -10 16 0 5 5 9 10 9 6 0 10 -7 10 -16z m-23 -146 c-3 -8 -6 -5 -6
6 -1 11 2 17 5 13 3 -3 4 -12 1 -19z m-2199 -53 c74 -8 138 -18 144 -21 6 -4
108 -8 227 -9 384 -5 822 -54 916 -102 43 -23 115 -88 138 -126 24 -40 62 -77
108 -105 41 -25 53 -28 43 -9 -4 7 -3 9 2 4 5 -5 7 -10 4 -12 -3 -2 7 -13 23
-25 36 -28 35 -45 -2 -26 -104 54 -307 102 -531 126 -107 11 -206 22 -352 40
-120 14 -268 28 -383 35 -55 4 -113 8 -130 10 -16 2 -100 8 -185 14 -85 6
-176 13 -202 16 -62 5 -605 -32 -868 -60 -25 -3 -83 -9 -130 -15 -47 -5 -130
-14 -185 -20 -317 -34 -476 -60 -583 -96 -40 -13 -77 -24 -84 -24 -6 0 -33
-13 -59 -30 -27 -16 -49 -26 -49 -20 0 16 65 63 146 105 75 39 88 53 124 135
4 8 29 32 55 52 62 47 204 82 395 98 74 6 182 15 240 21 58 5 197 12 310 15
113 3 275 14 360 24 197 22 340 24 508 5z m-2638 -33 c0 -15 -2 -15 -10 -2
-13 20 -13 33 0 25 6 -3 10 -14 10 -23z m3097 -302 c259 -20 361 -32 478 -55
272 -55 378 -92 410 -145 19 -34 20 -48 18 -443 -2 -435 -3 -442 -54 -532 -32
-57 -50 -75 -134 -133 -59 -40 -89 -51 -270 -97 -49 -12 -112 -30 -140 -39
-43 -15 -59 -16 -115 -6 -67 12 -157 62 -191 104 -9 12 -25 31 -35 43 -27 31
-89 119 -129 183 -58 93 -78 121 -134 181 -70 76 -127 111 -233 144 -74 23
-99 26 -170 22 -102 -6 -212 -36 -270 -74 -65 -43 -138 -121 -188 -202 -77
-126 -203 -288 -255 -329 -105 -82 -171 -95 -295 -57 -41 13 -115 32 -165 44
-219 52 -349 137 -395 258 -27 73 -44 292 -43 583 0 214 13 343 39 371 50 56
484 149 784 170 85 5 160 12 165 14 23 8 1206 4 1322 -5z m1223 -131 c0 -5 -4
-9 -10 -9 -5 0 -10 7 -10 16 0 8 5 12 10 9 6 -3 10 -10 10 -16z m28 -449 c-1
-69 -4 -133 -7 -142 -3 -9 -6 78 -6 195 -1 146 2 190 7 142 4 -38 7 -126 6
-195z m-3991 -83 c1 -140 8 -250 22 -360 12 -87 21 -188 21 -225 0 -63 -3 -73
-47 -146 -27 -43 -54 -89 -61 -102 -37 -68 -67 11 -87 232 -8 87 -19 195 -24
240 -5 44 -13 141 -16 215 -6 120 -5 139 13 184 10 27 28 54 38 60 11 5 21 13
24 16 3 4 24 16 47 28 23 11 47 30 53 41 6 11 12 20 13 20 1 0 3 -91 4 -203z
m4124 136 c8 -35 14 -50 17 -38 2 10 11 30 20 43 15 23 16 23 29 6 7 -10 13
-28 13 -41 0 -24 15 -31 23 -10 3 6 16 -13 31 -43 23 -49 26 -67 26 -163 0
-59 -6 -151 -14 -205 -8 -53 -17 -140 -21 -192 -17 -281 -23 -318 -47 -334
-25 -15 -56 19 -104 114 l-39 75 1 120 c0 66 6 154 13 195 7 41 14 169 16 283
4 186 8 247 20 247 2 0 9 -26 16 -57z m-4000 -203 c15 -116 64 -303 97 -370
14 -30 54 -82 87 -115 33 -32 54 -56 48 -52 -6 4 -13 2 -15 -4 -7 -21 -101 87
-135 156 -56 114 -107 361 -102 492 2 32 3 33 5 8 2 -16 9 -68 15 -115z m1993
-100 c-12 -5 -25 -13 -29 -19 -3 -6 -11 -9 -16 -6 -5 4 -6 -2 -2 -11 4 -10 8
-13 10 -7 3 7 12 9 20 6 12 -5 15 -2 10 10 -8 21 -3 21 17 1 29 -28 17 -34
-70 -34 -93 0 -171 -18 -235 -55 -44 -24 -129 -101 -129 -116 0 -5 -6 -9 -14
-9 -8 0 -17 -11 -20 -25 -3 -13 -25 -48 -49 -78 -23 -29 -58 -75 -76 -102 -19
-28 -59 -80 -89 -117 -67 -82 -132 -115 -232 -118 -91 -3 -106 1 -33 10 98 11
166 51 248 146 61 72 188 258 206 304 7 17 90 104 127 133 34 26 150 78 197
87 57 11 186 11 159 0z m136 -30 c8 -5 11 -10 5 -10 -5 0 -17 5 -25 10 -8 5
-10 10 -5 10 6 0 17 -5 25 -10z m120 -84 c30 -22 57 -42 60 -44 2 -2 -2 -7
-10 -12 -15 -10 -10 -20 12 -24 7 -1 22 -7 33 -13 17 -10 18 -14 6 -25 -8 -7
-11 -8 -8 -2 4 7 0 15 -9 18 -12 4 -15 2 -10 -9 3 -9 0 -15 -10 -15 -9 0 -14
6 -12 12 3 7 -16 26 -41 42 -55 36 -64 48 -48 59 8 6 7 7 -3 4 -9 -3 -31 4
-50 14 -23 13 -27 17 -11 13 16 -4 21 -3 17 5 -4 6 -2 11 4 11 6 0 8 5 4 12
-10 15 8 5 76 -46z m212 -291 c3 -14 1 -25 -3 -25 -5 0 -9 11 -9 25 0 14 2 25
4 25 2 0 6 -11 8 -25z m-1819 -192 c-7 -2 -19 -2 -25 0 -7 3 -2 5 12 5 14 0
19 -2 13 -5z m1957 -128 c11 -13 10 -14 -4 -9 -9 3 -16 10 -16 15 0 13 6 11
20 -6z m50 -5 c0 -5 -2 -10 -4 -10 -3 0 -8 5 -11 10 -3 6 -1 10 4 10 6 0 11
-4 11 -10z m-1456 -39 c3 -5 -1 -14 -8 -20 -12 -10 -14 -9 -11 6 2 10 4 19 4
21 2 5 10 2 15 -7z m1470 -43 c-4 -6 -16 1 -30 17 -32 37 -30 41 6 15 17 -12
27 -26 24 -32z m-1508 -164 c-12 -30 -25 -13 -13 19 8 23 12 27 15 14 2 -10 1
-25 -2 -33z m-1090 -161 c-10 -10 -19 5 -10 18 6 11 8 11 12 0 2 -7 1 -15 -2
-18z m3554 -13 c0 -5 -4 -10 -10 -10 -5 0 -10 5 -10 10 0 6 5 10 10 10 6 0 10
-4 10 -10z m-3476 -15 c-4 -8 -10 -12 -15 -9 -11 6 -2 24 11 24 5 0 7 -7 4
-15z m6 -145 c0 -16 -4 -31 -8 -34 -5 -3 -8 12 -8 34 0 21 4 36 8 34 4 -3 8
-18 8 -34z m64 -69 c5 -29 4 -32 -9 -21 -16 13 -20 42 -8 53 8 9 9 8 17 -32z"/>
<path d="M335 2753 c5 -16 9 -84 10 -153 2 -129 13 -180 40 -180 17 0 19 9 5
44 -5 14 -10 84 -11 155 -2 72 -7 127 -12 124 -4 -3 -11 4 -14 16 -3 12 -10
21 -15 21 -6 0 -7 -11 -3 -27z"/>
<path d="M4675 2773 c-3 -43 -13 -121 -21 -174 -8 -53 -14 -116 -13 -140 0
-40 1 -42 11 -19 27 65 61 410 40 410 -6 0 -13 -33 -17 -77z"/>
<path d="M3350 4645 c0 -10 -5 -15 -13 -12 -8 3 -20 1 -28 -4 -12 -7 -12 -9 1
-10 8 0 22 -2 30 -3 8 -2 49 -6 90 -9 71 -6 76 -5 93 18 21 29 20 30 -26 10
-45 -19 -72 -19 -89 -1 -8 7 -24 17 -36 20 -17 6 -22 3 -22 -9z"/>
<path d="M3415 4640 c3 -5 8 -10 11 -10 2 0 4 5 4 10 0 6 -5 10 -11 10 -5 0
-7 -4 -4 -10z"/>
<path d="M4571 4499 c-35 -5 -71 -14 -80 -22 -39 -35 -124 -69 -158 -64 -35 6
-42 -3 -18 -23 14 -12 13 -16 -6 -36 -12 -13 -19 -27 -15 -31 4 -4 11 -1 16 7
8 13 10 12 10 -2 0 -10 7 -18 15 -18 8 0 12 -6 9 -13 -7 -19 -59 -9 -80 14
-20 22 -30 24 -48 7 -11 -11 -11 -15 1 -23 12 -9 12 -16 2 -38 -19 -43 -42
-33 -89 39 -23 36 -44 63 -47 60 -6 -5 61 -114 95 -154 18 -21 21 -23 17 -7
-5 14 3 9 24 -15 26 -28 28 -36 16 -40 -22 -8 13 -38 87 -75 81 -40 125 -80
149 -135 11 -26 34 -61 51 -76 28 -27 31 -28 42 -11 6 10 19 28 29 40 31 36
33 65 12 162 -6 29 -6 29 9 11 9 -11 17 -29 17 -40 1 -16 2 -17 6 -4 2 9 -3
30 -12 47 -9 19 -11 31 -5 31 13 0 50 -83 50 -111 0 -10 5 -19 10 -19 6 0 10
9 10 19 0 11 5 23 10 26 6 3 10 11 10 18 0 6 -6 2 -14 -8 -12 -17 -14 -16 -26
21 -7 21 -17 45 -23 52 -6 8 -6 12 1 12 7 0 9 7 5 17 -4 11 -3 14 5 9 7 -4 12
-3 12 2 0 6 11 13 24 16 14 3 49 29 78 57 29 29 43 44 31 34 -28 -22 -30 -6
-3 28 32 41 23 38 -27 -9 -50 -45 -156 -104 -189 -104 -16 0 -15 3 6 18 l25
17 -55 6 c-82 10 -134 21 -147 32 -7 5 -13 24 -13 42 0 31 1 32 38 28 20 -2
42 -5 48 -7 6 -2 17 0 24 4 8 5 22 2 35 -6 19 -12 28 -12 72 1 56 17 75 34 92
84 10 30 8 39 -14 77 -14 24 -33 47 -43 52 -9 5 -46 5 -81 1z m99 -79 c4 -14
4 -33 2 -44 -5 -17 -6 -17 -22 3 -10 15 -31 24 -61 28 l-44 6 40 19 c52 23 78
20 85 -12z m-286 -146 c4 -10 1 -14 -6 -12 -15 5 -23 28 -10 28 5 0 13 -7 16
-16z m152 -195 c13 -15 19 -35 18 -70 0 -26 3 -46 8 -43 9 6 10 -31 2 -63 -6
-21 -7 -20 -33 10 -63 73 -74 105 -47 133 19 18 26 18 42 -3 10 -14 13 -15 14
-4 0 8 -10 25 -22 38 -12 13 -17 23 -11 23 5 0 18 -9 29 -21z m62 -62 c11 -44
7 -87 -9 -87 -5 0 -10 12 -11 28 -7 118 0 140 20 59z"/>
<path d="M4490 4015 c7 -9 15 -13 17 -11 7 7 -7 26 -19 26 -6 0 -6 -6 2 -15z"/>
<path d="M316 4456 c3 -9 -5 -15 -24 -19 -16 -3 -32 -13 -35 -21 -5 -12 0 -13
25 -5 33 9 81 2 73 -11 -3 -4 -21 -11 -41 -15 -36 -6 -72 -31 -61 -41 3 -3 18
1 34 9 16 9 45 18 66 22 48 9 50 -9 3 -29 -36 -15 -65 -46 -30 -32 10 4 35 10
54 13 27 4 32 3 24 -7 -7 -6 -29 -13 -50 -15 -27 -3 -45 -12 -63 -34 -14 -16
-36 -34 -48 -38 -15 -6 -20 -12 -14 -21 7 -12 12 -12 32 0 13 7 29 19 37 26
18 16 32 15 32 -2 0 -8 -13 -23 -30 -32 -31 -19 -47 -44 -28 -44 6 0 16 6 22
14 7 9 33 16 65 17 l54 3 19 -108 c15 -92 22 -111 43 -128 35 -27 31 -38 -13
-38 -26 0 -45 7 -57 20 -25 27 -37 25 -23 -5 6 -14 23 -27 39 -30 16 -4 27
-10 24 -15 -3 -4 2 -10 10 -14 18 -6 30 10 13 17 -7 3 8 5 33 5 45 -1 46 -2
30 -19 -9 -10 -27 -22 -40 -27 -20 -7 -21 -10 -7 -21 13 -11 20 -8 45 19 16
17 33 37 38 43 6 8 -9 23 -47 48 -65 42 -71 56 -62 148 l7 65 28 -57 c16 -30
31 -74 34 -96 3 -22 12 -42 20 -45 20 -8 60 19 114 76 38 40 51 48 71 43 19
-5 28 1 47 32 14 21 38 47 55 58 19 13 37 38 49 70 26 69 32 100 19 91 -6 -3
-13 -19 -17 -35 -3 -16 -12 -32 -20 -34 -7 -3 -16 -19 -20 -36 -10 -48 -20
-44 -19 7 2 51 32 137 33 94 1 -13 5 -21 11 -17 5 3 6 15 1 28 -5 12 -5 34 0
49 13 48 -11 32 -34 -22 -22 -53 -37 -64 -37 -29 0 15 -4 19 -16 15 -9 -3 -18
-6 -20 -6 -2 0 -4 -8 -4 -17 0 -13 -3 -14 -12 -5 -9 9 -9 15 0 24 21 21 14 40
-13 36 -19 -2 -33 6 -55 32 -16 19 -30 38 -30 41 0 4 -7 9 -15 13 -21 8 -19 4
15 -39 17 -21 30 -43 30 -50 0 -7 7 -15 15 -19 10 -4 15 -20 15 -52 0 -46 0
-46 -22 -31 -52 37 -146 86 -188 98 -46 13 -66 24 -138 72 -47 31 -54 33 -46
13z m92 -228 c-3 -7 -20 -14 -39 -15 l-34 -2 30 14 c38 18 48 18 43 3z m197
-198 c3 -6 -6 -15 -20 -20 -35 -13 -35 -13 -35 10 0 15 7 20 24 20 14 0 28 -5
31 -10z"/>
<path d="M3940 4411 c0 -22 8 -35 31 -52 31 -22 31 -22 20 -1 -6 11 -16 24
-21 27 -6 3 -10 15 -10 25 0 10 -4 22 -10 25 -6 4 -10 -6 -10 -24z"/>
<path d="M4185 4410 c-4 -6 -10 -8 -15 -5 -12 7 -29 -18 -26 -40 4 -24 42 -39
50 -19 3 9 10 13 15 10 12 -8 44 30 38 46 -4 9 -6 8 -6 -3 -1 -9 -8 -22 -16
-29 -12 -10 -15 -9 -15 6 -1 16 -3 15 -15 -6 -16 -29 -20 -14 -5 24 10 26 7
35 -5 16z"/>
<path d="M788 4403 c7 -3 16 -2 19 1 4 3 -2 6 -13 5 -11 0 -14 -3 -6 -6z"/>
<path d="M2925 4386 c-27 -7 -65 -19 -83 -27 l-33 -14 53 -1 c38 -1 46 1 28 6
-21 7 -22 8 -5 10 11 1 29 3 40 5 11 2 46 6 78 10 31 3 57 11 57 16 0 13 -75
10 -135 -5z"/>
<path d="M4030 4382 c0 -14 11 -21 26 -15 21 8 17 23 -6 23 -11 0 -20 -4 -20
-8z"/>
<path d="M2035 4370 c-3 -5 -15 -10 -26 -10 -21 0 -27 -19 -6 -21 6 -1 63 -2
125 -2 92 -2 109 0 95 11 -9 6 -24 10 -33 7 -9 -3 -38 2 -66 10 -58 17 -81 19
-89 5z"/>
<path d="M225 4339 c-4 -6 -5 -12 -2 -15 2 -3 7 2 10 11 7 17 1 20 -8 4z"/>
<path d="M4765 4314 c-9 -14 -15 -27 -13 -30 2 -2 12 10 22 26 21 37 15 40 -9
4z"/>
<path d="M252 4313 c-6 -3 -10 -9 -6 -14 7 -12 -10 -11 -23 2 -7 7 -15 3 -26
-14 -15 -24 -15 -25 6 -31 12 -3 28 1 37 9 9 8 21 15 27 15 6 0 17 8 24 17 12
15 12 16 -3 10 -9 -3 -18 -2 -20 2 -2 4 -9 6 -16 4z"/>
<path d="M4846 4293 c-6 -14 -5 -15 5 -6 7 7 10 15 7 18 -3 3 -9 -2 -12 -12z"/>
<path d="M925 4285 c-3 -8 -7 -22 -9 -29 -3 -10 0 -13 10 -9 7 3 14 16 14 29
0 27 -8 32 -15 9z"/>
<path d="M4992 4245 c0 -16 2 -22 5 -12 2 9 2 23 0 30 -3 6 -5 -1 -5 -18z"/>
<path d="M1650 4250 c-14 -4 -44 -17 -67 -29 -22 -11 -62 -26 -87 -33 -25 -7
-46 -16 -46 -20 0 -11 -2 -11 65 12 66 23 106 26 58 5 -18 -8 -33 -19 -33 -25
0 -6 15 -4 38 6 70 32 295 34 374 4 56 -21 117 -29 68 -8 -14 5 -37 16 -51 24
-14 7 -46 16 -70 20 -69 10 -84 26 -19 20 37 -4 48 -2 35 4 -30 13 -91 12
-148 -4 -29 -8 -72 -17 -97 -21 l-45 -6 30 31 c16 16 27 30 24 29 -2 0 -15 -4
-29 -9z"/>
<path d="M1066 4219 c-44 -30 -73 -64 -68 -82 1 -5 -2 -6 -7 -3 -11 7 -67 -61
-58 -71 12 -11 64 19 76 43 6 14 16 22 22 19 5 -4 24 8 42 27 18 19 41 38 52
42 19 8 19 9 -5 16 -21 5 -16 9 35 22 l60 16 -51 1 c-41 1 -60 -5 -98 -30z
m-1 -59 c-3 -5 -13 -10 -21 -10 -8 0 -12 5 -9 10 3 6 13 10 21 10 8 0 12 -4 9
-10z"/>
<path d="M3818 4238 c12 -6 22 -15 22 -20 0 -4 8 -8 18 -8 11 0 27 -9 37 -20
10 -11 22 -17 27 -14 17 11 58 -25 55 -49 -1 -12 -6 -25 -10 -28 -5 -4 4 -10
19 -13 15 -4 35 -16 45 -27 9 -10 34 -31 55 -45 l39 -25 -38 37 c-39 37 -56
84 -31 84 20 0 17 9 -17 65 -17 28 -28 42 -25 32 14 -45 18 -67 10 -67 -5 0
-15 12 -21 28 -11 24 -68 72 -86 72 -20 0 -3 -22 23 -31 17 -6 30 -15 30 -20
0 -15 -15 -10 -52 14 -34 24 -92 48 -112 46 -6 0 -1 -5 12 -11z m172 -68 c0
-5 -2 -10 -4 -10 -3 0 -8 5 -11 10 -3 6 -1 10 4 10 6 0 11 -4 11 -10z"/>
<path d="M3135 4220 c-76 -6 -95 -13 -95 -36 0 -8 -4 -14 -10 -14 -5 0 -10 -4
-10 -10 0 -17 30 -11 37 8 10 28 26 44 32 33 5 -7 46 -7 126 -1 109 9 196 5
320 -15 18 -3 26 -2 20 4 -9 8 -43 14 -115 22 -8 1 -18 7 -22 12 -4 7 -11 7
-21 -1 -7 -7 -16 -10 -18 -7 -8 8 -173 11 -244 5z"/>
<path d="M4666 4215 c-11 -8 -15 -15 -9 -15 6 0 16 7 23 15 16 19 11 19 -14 0z"/>
<path d="M4627 4203 c-4 -3 -7 -11 -7 -17 0 -6 5 -5 12 2 6 6 9 14 7 17 -3 3
-9 2 -12 -2z"/>
<path d="M1190 4164 c-24 -9 -29 -13 -14 -13 11 -1 29 6 40 14 22 17 20 17
-26 -1z"/>
<path d="M310 4165 c0 -3 11 -18 24 -32 13 -14 27 -41 31 -59 4 -24 10 -31 20
-27 11 4 15 -2 15 -22 0 -14 3 -24 8 -22 4 3 5 31 3 64 -3 51 -5 55 -13 31
-15 -44 -30 -33 -26 20 3 47 3 47 -29 50 -18 2 -33 1 -33 -3z"/>
<path d="M3408 4163 c7 -3 16 -2 19 1 4 3 -2 6 -13 5 -11 0 -14 -3 -6 -6z"/>
<path d="M1042 4105 c-17 -8 -36 -25 -41 -39 -6 -13 -16 -28 -23 -32 -10 -6
-10 -4 1 9 21 27 -3 20 -29 -8 -24 -26 -23 -46 2 -23 7 7 19 14 25 15 24 5
103 65 103 79 0 17 3 17 -38 -1z"/>
<path d="M4070 4097 c0 -1 14 -16 32 -32 31 -29 31 -18 0 18 -13 14 -32 23
-32 14z"/>
<path d="M122 4030 c6 -23 13 -39 15 -36 7 7 -7 65 -17 71 -4 3 -3 -13 2 -35z"/>
<path d="M1684 4053 c-17 -2 -42 -15 -55 -29 -22 -24 -22 -24 -1 -24 11 0 24
5 27 10 10 16 158 12 198 -5 38 -16 58 -5 37 20 -15 19 -143 36 -206 28z"/>
<path d="M3348 4043 c7 -3 16 -2 19 1 4 3 -2 6 -13 5 -11 0 -14 -3 -6 -6z"/>
<path d="M3143 4029 c-6 -6 -8 -20 -6 -30 5 -17 12 -19 52 -15 25 2 91 5 145
5 55 1 97 3 94 6 -7 8 -231 7 -251 0 -12 -5 -16 -3 -12 7 4 11 18 14 48 11 40
-4 41 -3 25 13 -15 15 -19 15 -34 3 -13 -11 -18 -11 -21 -1 -6 15 -25 16 -40
1z"/>
<path d="M3250 4031 c0 -14 23 -26 27 -14 2 5 16 9 31 7 l27 -4 -25 9 c-34 12
-60 13 -60 2z"/>
<path d="M3368 4013 c12 -2 30 -2 40 0 9 3 -1 5 -23 4 -22 0 -30 -2 -17 -4z"/>
<path d="M4630 3969 c0 -11 5 -17 10 -14 6 3 10 13 10 21 0 8 -4 14 -10 14 -5
0 -10 -9 -10 -21z"/>
<path d="M4270 3921 c0 -5 8 -19 18 -31 17 -21 19 -21 19 -4 0 10 -6 24 -13
31 -15 15 -24 17 -24 4z"/>
<path d="M436 3862 c-3 -6 -1 -14 5 -17 15 -10 25 3 12 16 -7 7 -13 7 -17 1z"/>
<path d="M4380 3759 c0 -7 -10 -9 -27 -5 -21 5 -24 4 -13 -4 22 -15 50 -12 50
5 0 8 -2 15 -5 15 -3 0 -5 -5 -5 -11z"/>
<path d="M492 3638 c-15 -15 -16 -38 0 -38 6 0 19 -7 29 -16 10 -9 23 -13 28
-9 18 11 12 43 -11 59 -27 19 -31 19 -46 4z"/>
<path d="M4480 3640 c-16 -4 -21 -8 -13 -13 7 -4 24 -5 38 -1 29 7 31 2 9 -31
-18 -28 -9 -32 29 -12 24 13 25 15 12 34 -17 24 -41 32 -75 23z"/>
<path d="M4840 3590 c-8 -5 -24 -10 -36 -10 -26 0 -52 -28 -63 -68 -12 -40 4
-47 44 -17 35 26 81 43 71 26 -11 -17 -3 -14 34 14 l34 25 -48 0 -48 0 23 20
c25 20 16 27 -11 10z m20 -44 c0 -2 -9 -6 -20 -9 -11 -3 -20 -1 -20 4 0 5 9 9
20 9 11 0 20 -2 20 -4z"/>
<path d="M240 3443 c0 -4 5 -15 10 -23 8 -13 10 -13 10 2 0 9 -4 20 -10 23 -5
3 -10 3 -10 -2z"/>
<path d="M1995 2180 c-3 -5 -1 -10 4 -10 6 0 11 5 11 10 0 6 -2 10 -4 10 -3 0
-8 -4 -11 -10z"/>
<path d="M990 2145 c0 -2 10 -10 23 -16 20 -11 21 -11 8 4 -13 16 -31 23 -31
12z"/>
<path d="M4357 2115 c-46 -16 -63 -29 -24 -20 15 4 33 3 40 -3 18 -15 42 1 31
21 -8 13 -14 13 -47 2z"/>
<path d="M3820 2076 c0 -2 9 -6 20 -9 11 -3 18 -1 14 4 -5 9 -34 13 -34 5z"/>
<path d="M1328 2053 c6 -2 18 -2 25 0 6 3 1 5 -13 5 -14 0 -19 -2 -12 -5z"/>
<path d="M1415 2034 c63 -17 91 -17 45 1 -19 7 -48 13 -65 13 -24 0 -20 -3 20
-14z"/>
<path d="M1871 2024 c0 -11 3 -14 6 -6 3 7 2 16 -1 19 -3 4 -6 -2 -5 -13z"/>
<path d="M616 2015 c-3 -9 -6 -22 -5 -28 0 -7 5 -1 10 12 5 13 8 26 5 28 -2 2
-6 -3 -10 -12z"/>
<path d="M1348 2023 c7 -3 16 -2 19 1 4 3 -2 6 -13 5 -11 0 -14 -3 -6 -6z"/>
<path d="M1530 2010 c19 -5 51 -5 70 0 29 7 23 8 -35 8 -58 0 -64 -1 -35 -8z"/>
<path d="M1632 1988 c-24 -5 -41 -12 -38 -15 8 -8 74 6 81 17 4 6 5 10 3 9 -2
-1 -23 -6 -46 -11z"/>
<path d="M1847 1974 c-4 -4 -7 -14 -7 -23 0 -11 3 -12 11 -4 6 6 10 16 7 23
-2 6 -7 8 -11 4z"/>
<path d="M1900 1957 c0 -1 -4 -18 -10 -36 -5 -20 -6 -31 -1 -25 12 11 25 64
17 64 -3 0 -6 -1 -6 -3z"/>
<path d="M2255 1851 c-99 -49 -130 -78 -179 -175 -32 -62 -40 -89 -44 -148 -6
-101 11 -204 39 -234 12 -13 20 -27 16 -30 -4 -4 -9 1 -13 10 -3 9 -11 16 -17
16 -5 0 -2 -9 8 -20 10 -11 20 -18 23 -15 7 7 32 -15 32 -27 0 -6 -8 -4 -17 3
-10 7 2 -8 26 -33 24 -25 61 -54 82 -63 21 -10 39 -23 39 -29 0 -13 124 -73
169 -82 17 -4 31 -9 31 -13 0 -4 31 -8 70 -9 59 -3 73 0 92 17 23 22 39 26
102 22 36 -2 38 0 34 24 -5 22 -2 25 16 23 15 -2 20 2 18 13 -1 9 5 19 13 23
11 4 14 2 9 -7 -10 -16 105 91 132 123 37 45 74 175 74 265 0 102 -53 218
-133 291 -86 79 -181 102 -277 68 -75 -27 -110 -33 -110 -20 0 7 -29 18 -67
26 -38 7 -72 14 -78 16 -5 2 -46 -14 -90 -35z m105 -93 c10 -6 6 -7 -15 -3
-16 4 -34 11 -40 17 -12 12 31 1 55 -14z m-128 -439 c68 -26 79 -37 35 -36
-20 0 -34 4 -31 8 2 4 -4 10 -14 13 -29 11 -68 36 -55 36 7 0 36 -9 65 -21z
m632 -7 c2 -4 1 -14 -4 -22 -7 -11 -16 -11 -54 0 -66 18 -66 30 -2 30 30 0 57
-4 60 -8z"/>
<path d="M723 1838 c-2 -5 3 -8 11 -8 9 0 16 -4 16 -10 0 -16 57 -12 63 5 4 8
2 17 -3 20 -12 7 -81 2 -87 -7z"/>
<path d="M3288 1792 c-4 -12 -2 -20 3 -16 5 3 9 -9 9 -26 0 -32 35 -169 46
-179 9 -9 -7 101 -18 122 -5 10 -8 24 -5 30 2 7 -3 30 -13 52 -15 35 -17 37
-22 17z"/>
<path d="M2020 1726 c0 -8 5 -18 10 -21 6 -3 10 1 10 9 0 8 -4 18 -10 21 -5 3
-10 -1 -10 -9z"/>
<path d="M3042 1701 c-1 -22 2 -42 7 -45 9 -6 9 69 0 79 -3 3 -6 -13 -7 -34z"/>
<path d="M1684 1619 c-3 -6 -1 -16 5 -22 8 -8 11 -5 11 11 0 24 -5 28 -16 11z"/>
<path d="M1173 1508 c-4 -7 -8 -15 -9 -18 0 -3 -6 -24 -13 -48 -6 -24 -9 -51
-6 -62 7 -21 8 -27 30 -130 15 -70 90 -249 100 -238 3 2 -11 33 -30 69 -20 38
-43 102 -55 159 -11 52 -25 112 -31 132 -8 30 -6 48 10 93 19 54 20 68 4 43z"/>
<path d="M1045 1449 c-15 -22 -25 -45 -23 -51 2 -6 16 13 30 41 32 61 28 67
-7 10z"/>
<path d="M1325 1428 c-3 -24 -8 -56 -11 -73 -3 -23 -2 -25 5 -10 9 23 24 125
17 125 -2 0 -7 -19 -11 -42z"/>
<path d="M3940 1452 c0 -10 10 -27 22 -38 13 -12 18 -13 13 -4 -5 8 -9 24 -10
34 0 25 -25 34 -25 8z"/>
<path d="M3876 1447 c3 -10 9 -15 12 -12 3 3 0 11 -7 18 -10 9 -11 8 -5 -6z"/>
<path d="M3030 1399 c0 -11 5 -17 10 -14 6 3 10 13 10 21 0 8 -4 14 -10 14 -5
0 -10 -9 -10 -21z"/>
<path d="M3780 1416 c0 -4 9 -19 20 -33 13 -17 20 -20 20 -11 0 8 -9 23 -20
33 -11 10 -20 15 -20 11z"/>
<path d="M1716 1298 c-10 -170 -9 -187 13 -232 11 -23 25 -56 32 -75 7 -19 28
-56 46 -82 18 -27 33 -51 33 -54 0 -3 13 -17 28 -32 16 -16 41 -46 58 -68 38
-53 56 -67 139 -118 70 -42 152 -75 191 -76 11 -1 24 -4 28 -8 12 -12 55 -15
241 -15 173 0 184 1 289 33 60 17 125 42 145 55 122 79 154 108 212 198 33 50
62 102 66 116 3 14 11 32 18 40 7 8 16 36 20 62 5 34 11 45 21 41 9 -3 14 2
14 13 0 11 9 30 20 44 17 22 20 23 20 6 0 -11 3 -17 6 -13 4 3 3 14 -1 24 -4
10 -8 27 -9 37 -1 11 -6 21 -13 23 -7 3 -9 -3 -6 -16 3 -12 1 -21 -5 -21 -6 0
-17 -3 -26 -6 -13 -5 -16 1 -16 25 0 21 -5 31 -15 31 -8 0 -15 5 -15 10 0 6
-5 10 -11 10 -7 0 -9 -12 -5 -35 5 -23 3 -35 -4 -35 -8 0 -10 -13 -5 -38 19
-114 -49 -278 -155 -373 -36 -33 -69 -59 -75 -59 -6 0 -26 -8 -45 -19 -63 -33
-247 -91 -317 -100 -120 -15 -332 2 -368 29 -5 4 -28 13 -50 20 -247 78 -371
207 -418 436 l-14 64 25 -22 25 -23 -12 23 c-9 16 -9 22 0 22 6 0 -3 16 -19
34 -30 35 -37 63 -45 181 -2 36 -11 54 -28 55 -4 0 -10 -51 -13 -112z m34 27
c0 -23 -3 -27 -10 -15 -5 8 -10 29 -10 45 0 23 3 27 10 15 5 -8 10 -28 10 -45z"/>
<path d="M3320 1401 c0 -10 30 -24 37 -17 3 3 2 9 -2 15 -8 13 -35 15 -35 2z"/>
<path d="M1241 1355 c0 -26 10 -75 43 -203 21 -80 24 -107 16 -117 -16 -19
-30 -85 -19 -85 5 0 9 -7 9 -16 0 -18 -3 -17 -50 15 -37 24 -83 86 -118 156
-25 51 -54 77 -76 69 -21 -8 -20 -17 4 -39 11 -10 38 -57 61 -104 41 -87 64
-121 82 -121 5 0 7 7 3 15 -7 20 -1 19 53 -11 47 -27 113 -101 131 -148 9 -26
30 -36 30 -15 0 5 5 7 10 4 24 -15 18 27 -15 98 -20 43 -38 91 -40 107 -6 46
-16 71 -26 65 -5 -4 -9 7 -9 24 0 17 -4 40 -9 53 -14 36 -60 189 -70 233 -5
22 -9 31 -10 20z m107 -470 c5 -23 -17 -15 -36 13 -14 21 -14 22 9 14 13 -5
26 -17 27 -27z m35 -53 c19 -16 23 -32 8 -32 -5 0 -20 14 -32 32 -22 31 -12
31 24 0z"/>
<path d="M3326 1361 c-4 -6 -4 -17 2 -24 5 -7 12 -21 16 -32 6 -17 4 -17 -18
4 -33 31 -33 17 0 -34 16 -25 24 -32 21 -18 -3 13 1 24 9 27 20 8 17 40 -4 67
-13 16 -21 19 -26 10z"/>
<path d="M3820 1341 c0 -6 4 -13 10 -16 6 -3 7 1 4 9 -7 18 -14 21 -14 7z"/>
<path d="M1346 1315 c-3 -8 -1 -15 4 -15 6 0 10 7 10 15 0 8 -2 15 -4 15 -2 0
-6 -7 -10 -15z"/>
<path d="M1392 1240 c0 -14 2 -19 5 -12 2 6 2 18 0 25 -3 6 -5 1 -5 -13z"/>
<path d="M1990 1234 c0 -25 19 -54 36 -54 9 0 14 3 12 8 -24 48 -32 62 -40 62
-4 0 -8 -7 -8 -16z"/>
<path d="M3040 1219 c-16 -30 -8 -31 13 -3 10 13 13 24 8 24 -6 0 -15 -9 -21
-21z"/>
<path d="M2975 1210 c-3 -5 -1 -10 4 -10 6 0 11 5 11 10 0 6 -2 10 -4 10 -3 0
-8 -4 -11 -10z"/>
<path d="M3730 1201 c0 -5 5 -13 10 -16 6 -3 10 -2 10 4 0 5 -4 13 -10 16 -5
3 -10 2 -10 -4z"/>
<path d="M2946 1165 c4 -8 10 -12 15 -9 11 6 2 24 -11 24 -5 0 -7 -7 -4 -15z"/>
<path d="M3692 1173 c-9 -4 -11 -21 -7 -66 l5 -62 -19 40 c-24 49 -26 37 -6
-29 14 -47 14 -52 -10 -112 -14 -34 -25 -67 -25 -73 0 -6 -5 -11 -11 -11 -5 0
-8 -4 -4 -9 3 -5 0 -13 -6 -17 -8 -5 -9 -3 -4 6 6 10 4 12 -8 7 -23 -9 -21 9
3 35 11 12 20 31 19 42 -1 18 -2 18 -9 -4 -4 -14 -9 -20 -9 -15 -1 6 -6 2 -12
-9 -9 -15 -13 -16 -20 -5 -7 12 -9 12 -9 0 0 -8 -19 -47 -42 -85 -30 -51 -43
-66 -46 -52 -3 16 -8 14 -40 -15 -20 -19 -29 -25 -19 -13 9 11 15 23 12 25 -2
3 20 32 50 65 30 32 54 66 55 74 0 10 -8 6 -24 -12 -14 -14 -29 -28 -33 -29
-10 -5 -64 -87 -61 -92 2 -2 -17 -24 -42 -48 -43 -42 -79 -103 -67 -115 3 -3
15 13 28 35 13 24 26 37 29 30 5 -7 9 -5 13 5 4 9 14 16 23 16 13 0 15 -6 9
-27 -6 -27 -6 -27 9 -8 14 18 15 18 16 3 0 -10 -9 -23 -20 -30 -11 -7 -21 -24
-21 -38 -1 -23 -2 -23 -8 4 -5 26 -8 27 -19 13 -7 -8 -15 -32 -18 -54 -4 -34
-3 -36 7 -15 7 12 18 22 25 22 7 0 20 9 28 21 8 12 18 19 23 16 13 -8 26 4 46
43 26 51 60 98 76 105 8 3 21 -1 31 -10 15 -14 19 -11 48 29 18 24 32 49 32
55 0 5 11 22 26 38 14 15 32 53 41 85 9 32 22 58 29 58 7 0 21 -17 31 -37 26
-55 50 -55 47 -1 -3 56 -3 56 -15 35 -5 -9 -7 -23 -4 -30 4 -6 -3 -1 -14 12
-18 20 -25 39 -23 62 2 15 -28 3 -34 -13 -5 -18 -7 -18 -24 -3 -14 13 -19 13
-23 3 -3 -7 -4 3 -1 22 8 81 13 140 11 139 -1 0 -8 -3 -15 -6z"/>
<path d="M1411 1144 c0 -11 3 -14 6 -6 3 7 2 16 -1 19 -3 4 -6 -2 -5 -13z"/>
<path d="M2160 1130 c0 -12 41 -30 53 -23 11 7 -2 19 -30 28 -14 4 -23 2 -23
-5z"/>
<path d="M3760 1124 c0 -8 5 -12 10 -9 6 4 8 11 5 16 -9 14 -15 11 -15 -7z"/>
<path d="M2190 1075 c0 -2 10 -10 23 -16 20 -11 21 -11 8 4 -13 16 -31 23 -31
12z"/>
<path d="M3611 1064 c0 -11 3 -14 6 -6 3 7 2 16 -1 19 -3 4 -6 -2 -5 -13z"/>
<path d="M2274 1036 c23 -18 56 -21 56 -5 0 6 -7 8 -16 5 -8 -3 -25 -1 -37 5
-21 10 -21 10 -3 -5z"/>
<path d="M1591 1015 c0 -16 6 -57 13 -90 13 -56 14 -58 15 -20 0 22 -6 63 -14
90 -11 40 -14 44 -14 20z"/>
<path d="M2800 1036 c0 -2 7 -7 16 -10 8 -3 12 -2 9 4 -6 10 -25 14 -25 6z"/>
<path d="M3623 995 c0 -27 2 -38 4 -22 2 15 2 37 0 50 -2 12 -4 0 -4 -28z"/>
<path d="M3541 1004 c0 -11 3 -14 6 -6 3 7 2 16 -1 19 -3 4 -6 -2 -5 -13z"/>
<path d="M2645 999 c11 -16 109 -39 164 -38 l56 2 -68 8 c-89 10 -97 19 -17
19 35 0 61 2 59 4 -9 8 -199 13 -194 5z"/>
<path d="M2170 990 c0 -9 64 -20 115 -19 30 0 35 2 20 8 -27 11 -135 19 -135
11z"/>
<path d="M2410 990 c-9 -6 -10 -10 -3 -10 6 0 15 5 18 10 8 12 4 12 -15 0z"/>
<path d="M2858 983 c7 -3 16 -2 19 1 4 3 -2 6 -13 5 -11 0 -14 -3 -6 -6z"/>
<path d="M2330 945 c0 -8 -24 -15 -70 -19 -38 -3 -102 -9 -140 -12 -54 -5 -78
-2 -104 10 -38 18 -50 20 -42 7 3 -5 -1 -12 -10 -15 -23 -9 -4 -29 54 -57 46
-23 53 -23 407 -24 198 0 349 3 335 7 -15 4 12 6 65 5 50 -1 123 0 163 1 68 2
73 3 67 22 -3 11 -3 20 2 20 12 0 65 51 59 57 -3 3 -11 1 -18 -4 -33 -26 -174
-37 -256 -19 -24 6 -32 4 -30 -6 4 -17 53 -39 103 -45 70 -8 53 -15 -25 -10
-112 8 -173 20 -178 36 -4 11 5 13 44 8 34 -4 42 -3 27 3 -12 5 -42 10 -65 11
-24 2 -52 9 -64 16 -29 19 -324 26 -324 8z m53 -12 c-7 -2 -19 -2 -25 0 -7 3
-2 5 12 5 14 0 19 -2 13 -5z m12 -24 c12 -13 -112 -32 -196 -31 -100 2 -169
20 -84 22 28 1 68 4 89 8 49 9 182 9 191 1z m608 -46 c-7 -2 -19 -2 -25 0 -7
3 -2 5 12 5 14 0 19 -2 13 -5z"/>
<path d="M1701 933 c-1 -12 4 -25 9 -28 12 -7 12 2 0 30 -8 19 -9 19 -9 -2z"/>
<path d="M1440 901 c5 -11 9 -37 8 -58 0 -21 8 -57 19 -80 18 -36 19 -43 6
-56 -10 -10 -12 -17 -4 -21 6 -4 11 -1 11 8 0 26 21 29 38 5 9 -13 37 -46 62
-74 25 -28 56 -65 69 -83 29 -39 46 -41 36 -5 -3 15 -9 56 -11 92 -4 43 -16
86 -37 130 l-31 66 -12 -30 -12 -30 -10 45 -10 45 -2 -70 -1 -70 -21 55 c-11
30 -24 63 -29 72 -5 10 -9 24 -9 32 0 8 -14 22 -32 30 -39 20 -41 20 -28 -3z"/>
<path d="M1775 880 c-3 -5 -1 -10 4 -10 6 0 11 5 11 10 0 6 -2 10 -4 10 -3 0
-8 -4 -11 -10z"/>
<path d="M2795 830 c3 -5 11 -10 16 -10 6 0 7 5 4 10 -3 6 -11 10 -16 10 -6 0
-7 -4 -4 -10z"/>
<path d="M1766 569 c8 -68 44 -202 60 -220 8 -8 19 -30 25 -47 13 -37 29 -42
29 -9 1 18 3 17 15 -10 13 -31 25 -40 37 -28 3 3 0 22 -8 43 -9 28 -18 37 -34
36 -28 -1 -73 91 -94 190 -17 81 -37 111 -30 45z"/>
<path d="M3269 579 c-3 -7 -2 -27 1 -44 6 -24 8 -27 14 -13 5 10 4 30 -1 45
-6 18 -11 22 -14 12z"/>
<path d="M3236 513 c-2 -10 -8 -33 -11 -51 -4 -18 -13 -36 -20 -38 -10 -4 -12
-17 -8 -42 6 -34 5 -36 -10 -23 -10 7 -17 20 -17 27 0 8 -5 14 -11 14 -6 0 -8
-7 -5 -16 4 -11 -1 -22 -15 -32 -15 -10 -18 -17 -10 -25 6 -6 11 -18 11 -27 0
-9 6 -25 14 -35 13 -18 14 -17 30 13 16 31 44 121 53 175 3 15 9 27 14 27 12
0 12 37 0 45 -5 3 -12 -3 -15 -12z m-56 -177 c0 -8 -4 -17 -9 -20 -10 -7 -23
19 -14 28 11 11 23 6 23 -8z"/>
<path d="M2716 495 c-9 -26 -7 -32 5 -12 6 10 9 21 6 23 -2 3 -7 -2 -11 -11z"/>
<path d="M2295 450 c-3 -5 -1 -10 4 -10 6 0 11 5 11 10 0 6 -2 10 -4 10 -3 0
-8 -4 -11 -10z"/>
<path d="M1990 371 c0 -28 21 -57 33 -45 3 3 10 -11 16 -32 20 -73 66 -111 78
-64 5 20 37 28 47 11 3 -5 18 -11 33 -14 16 -3 48 -11 73 -17 25 -6 56 -13 70
-14 19 -3 24 -9 25 -32 0 -24 6 -30 50 -47 62 -23 132 -23 209 0 53 16 61 22
74 54 12 30 24 41 82 66 l68 31 -5 -36 c-6 -35 -6 -35 26 -29 18 4 44 15 57
26 13 10 33 17 43 14 10 -3 22 1 26 8 6 8 4 10 -5 4 -17 -10 -3 54 17 77 20
23 13 50 -15 55 -17 2 -27 -5 -40 -27 -10 -17 -28 -32 -44 -35 -15 -4 -32 -13
-39 -21 -6 -8 -39 -28 -73 -44 -47 -23 -74 -30 -123 -30 l-61 0 9 -34 c8 -28
6 -39 -7 -54 -14 -17 -27 -19 -87 -16 -46 2 -76 9 -86 19 -10 10 -11 15 -3 15
21 0 13 28 -10 36 -12 3 -28 13 -36 20 -17 17 -59 18 -64 2 -3 -9 -15 -5 -39
13 -19 14 -52 33 -74 44 -22 10 -42 21 -45 25 -3 4 -18 15 -35 24 -16 9 -48
30 -70 46 -53 39 -75 39 -75 1z"/>
<path d="M3064 351 c-12 -14 -26 -36 -33 -48 -18 -36 10 -19 37 22 29 41 25
62 -4 26z"/>
<path d="M2420 220 c0 -5 5 -10 11 -10 5 0 7 5 4 10 -3 6 -8 10 -11 10 -2 0
-4 -4 -4 -10z"/>
</g>
</svg>
